<?xml version="1.0" standalone="no"?>
<!DOCTYPE svg PUBLIC "-//W3C//DTD SVG 20010904//EN"
 "http://www.w3.org/TR/2001/REC-SVG-20010904/DTD/svg10.dtd">
<svg version="1.0" xmlns="http://www.w3.org/2000/svg"
 width="270.000000pt" height="270.000000pt" viewBox="0 0 270.000000 270.000000"
 preserveAspectRatio="xMidYMid meet">
<metadata>
Created by potrace 1.11, written by Peter Selinger 2001-2013
</metadata>
<g transform="translate(0.000000,270.000000) scale(0.100000,-0.100000)"
fill="#000000" stroke="none">
<path d="M998 2183 c-132 -109 -206 -265 -206 -438 0 -136 45 -257 135 -362
60 -71 99 -99 118 -83 12 10 9 17 -24 44 -76 63 -145 168 -175 271 -20 65 -18
202 4 274 26 86 76 168 142 233 32 31 58 61 58 67 0 22 -20 20 -52 -6z"/>
<path d="M1652 2198 c-9 -9 6 -30 58 -84 208 -214 207 -531 -2 -736 -57 -56
-65 -68 -52 -78 12 -10 19 -9 37 6 207 177 269 443 158 679 -51 108 -173 239
-199 213z"/>
<path d="M1081 2021 c-158 -158 -153 -406 12 -561 37 -34 43 -36 51 -14 4 11
-7 30 -35 58 -133 130 -136 346 -8 479 45 47 56 77 29 77 -5 0 -28 -18 -49
-39z"/>
<path d="M1552 2047 c-9 -10 0 -24 34 -57 71 -68 108 -159 103 -254 -5 -100
-30 -157 -101 -232 -39 -41 -46 -53 -35 -62 18 -16 76 33 116 97 73 120 80
268 16 390 -18 35 -102 131 -115 131 -4 0 -12 -6 -18 -13z"/>
<path d="M1197 1896 c-81 -88 -79 -225 6 -304 22 -21 25 -21 38 -6 11 14 11
19 -6 33 -75 61 -76 204 -2 256 20 14 20 16 5 31 -15 16 -18 15 -41 -10z"/>
<path d="M1454 1906 c-3 -8 4 -25 16 -38 30 -31 50 -80 50 -123 0 -38 -28
-103 -54 -124 -18 -16 -19 -21 -6 -41 8 -12 15 -9 41 20 36 42 49 71 55 127 7
57 -11 117 -47 158 -34 38 -47 43 -55 21z"/>
<path d="M1271 1804 c-12 -15 -21 -41 -21 -59 0 -33 33 -86 45 -73 4 4 0 14
-9 23 -21 21 -21 69 0 101 23 34 11 41 -15 8z"/>
<path d="M1400 1829 c0 -3 7 -20 16 -38 17 -33 12 -101 -6 -101 -6 0 -10 -8
-10 -17 0 -15 3 -14 23 5 16 17 22 34 22 67 0 33 -6 50 -22 67 -13 12 -23 20
-23 17z"/>
<path d="M1337 1764 c-3 -3 -3 -28 0 -54 5 -45 4 -48 -20 -54 -35 -8 -51 -41
-48 -98 2 -38 -1 -48 -14 -48 -9 0 -13 -5 -9 -11 3 -6 7 -26 9 -45 2 -33 1
-34 -36 -34 -30 0 -37 -3 -35 -17 2 -12 15 -20 42 -24 28 -4 32 -7 12 -8 -24
-1 -27 -6 -33 -53 -4 -29 -8 -65 -11 -79 -2 -14 -6 -52 -9 -85 -4 -32 -8 -72
-10 -89 -1 -16 -8 -79 -15 -140 -16 -151 -17 -151 -82 -154 -30 -1 -63 -3 -74
-5 -10 -2 -50 -7 -89 -11 -38 -4 -77 -8 -85 -10 -8 -2 -37 -6 -65 -9 -27 -4
-79 -14 -115 -22 -36 -9 -72 -17 -80 -19 -101 -23 -280 -97 -280 -114 0 -15
-9 -16 163 29 160 41 336 75 440 85 34 4 67 8 74 10 72 23 685 23 773 0 8 -2
42 -7 75 -10 33 -4 119 -18 190 -32 161 -31 141 -26 259 -58 127 -34 146 -38
146 -25 0 28 -274 122 -424 146 -21 3 -48 7 -59 10 -56 10 -250 33 -314 36
-29 1 -44 7 -47 17 -4 14 -27 173 -42 291 -3 19 -6 44 -8 55 -2 11 -9 63 -16
115 -16 125 -14 120 -57 122 -35 1 -34 2 11 7 36 4 50 11 52 24 2 13 -5 17
-33 17 l-36 0 5 44 c4 30 1 46 -6 49 -8 3 -11 22 -9 49 2 34 -2 52 -18 71 -11
15 -26 27 -34 27 -16 0 -24 40 -13 69 11 31 -5 54 -25 35z m-29 -206 c-3 -49
-21 -58 -25 -13 -3 36 3 55 17 55 7 0 10 -17 8 -42z m57 3 c1 -30 -4 -41 -17
-44 -10 -3 -18 -2 -19 1 0 4 -2 24 -3 45 -1 31 2 37 19 37 17 0 20 -7 20 -39z
m43 -10 c2 -32 0 -42 -10 -39 -7 3 -14 23 -16 47 -2 32 0 42 10 39 7 -3 14
-23 16 -47z m-78 -151 c0 -5 -5 -10 -11 -10 -5 0 -7 5 -4 10 3 6 8 10 11 10 2
0 4 -4 4 -10z m8 -27 c-10 -2 -26 -2 -35 0 -10 3 -2 5 17 5 19 0 27 -2 18 -5z
m44 -134 c-3 -19 -10 -29 -21 -29 -13 0 -13 2 -2 9 10 6 6 13 -18 27 -26 15
-28 20 -14 25 9 3 26 4 38 1 17 -3 20 -9 17 -33z m-48 -21 c7 -5 4 -8 -6 -8
-12 0 -18 7 -17 23 0 15 2 17 6 7 3 -8 11 -18 17 -22z m46 -125 c0 -28 -4 -33
-22 -32 -21 0 -21 1 -4 8 17 6 16 9 -9 25 l-28 18 5 -26 c3 -14 1 -26 -3 -26
-9 0 -13 53 -5 61 2 2 18 4 35 4 28 1 31 -2 31 -32z m1 -181 c5 -24 3 -31 -12
-35 -20 -5 -27 9 -8 15 7 2 -1 12 -16 22 l-28 18 6 -31 c4 -20 3 -30 -3 -26
-14 9 -12 63 2 67 32 11 53 1 59 -30z"/>
<path d="M1317 574 c-1 -1 -94 -4 -207 -8 -113 -3 -221 -8 -240 -10 -19 -3
-64 -7 -100 -10 -36 -3 -74 -8 -85 -10 -11 -2 -50 -7 -87 -11 -37 -3 -70 -10
-73 -15 -3 -5 5 -7 17 -5 13 2 61 6 106 10 46 4 102 8 124 10 238 24 1007 18
1248 -10 97 -11 170 -16 170 -12 0 3 -33 10 -72 17 -40 6 -84 13 -98 16 -14 2
-59 7 -100 10 -41 3 -86 7 -100 10 -34 5 -498 22 -503 18z"/>
</g>
</svg>
