<svg xmlns="http://www.w3.org/2000/svg" width="1477" height="500" viewBox="0 0 1477 500" version="1.1"><title>GooglePlay</title><desc>Created with Sketch.</desc><g id="Page-1" stroke="none" stroke-width="1" fill="none" fill-rule="evenodd"><g id="GooglePlay"><g id="App-Store"><rect id="background" fill="#000000" x="0" y="0" width="1477" height="500" rx="60"/><g id="icon" transform="translate(130.000000, 88.000000)" fill="#FFFFFF"><path d="M193.34 150.55C193.02 114.79 222.63 97.39 223.98 96.58 207.21 72.13 181.22 68.79 172.09 68.53 150.26 66.23 129.09 81.59 117.97 81.59 106.63 81.59 89.51 68.75 71.05 69.13 47.31 69.49 25.09 83.24 12.9 104.59 -12.24 148.12 6.51 212.1 30.6 247.29 42.66 264.53 56.74 283.76 75.17 283.08 93.2 282.35 99.94 271.59 121.7 271.59 143.26 271.59 149.59 283.08 168.38 282.64 187.74 282.35 199.92 265.34 211.55 247.94 225.48 228.21 231.07 208.74 231.29 207.74 230.85 207.59 193.72 193.42 193.34 150.55" id="Fill-2"/><path d="M157.83 45.38C167.53 33.25 174.17 16.75 172.32 0 158.29 0.62 140.73 9.71 130.62 21.57 121.68 32.03 113.69 49.16 115.75 65.27 131.52 66.45 147.71 57.32 157.83 45.38" id="Fill-3"/></g><g transform="translate(459.000000, 218.000000)" fill="#FFFFFF"><path d="M125.53 150.61L100.33 150.61 86.52 107.23 38.54 107.23 25.39 150.61 0.86 150.61 48.41 2.93 77.77 2.93 125.53 150.61 125.53 150.61ZM82.36 89.03L69.88 50.48C68.56 46.53 66.07 37.26 62.43 22.65L61.99 22.65C60.52 28.93 58.18 38.21 54.97 50.48L42.7 89.03 82.36 89.03 82.36 89.03Z" id="Fill-4"/><path d="M247.57 96.06C247.57 114.17 242.66 128.48 232.81 138.99 224 148.35 213.05 153.02 199.99 153.02 185.89 153.02 175.74 147.99 169.58 137.9L169.58 193.78 145.93 193.78 145.93 79.12C145.93 67.75 145.63 56.09 145.05 44.12L165.86 44.12 167.18 61.01 167.62 61.01C175.51 48.29 187.48 41.93 203.55 41.93 216.11 41.93 226.6 46.89 234.99 56.82 243.37 66.77 247.57 79.85 247.57 96.06L247.57 96.06ZM223.47 96.92C223.47 86.56 221.14 78.01 216.46 71.29 211.34 64.29 204.47 60.77 195.86 60.77 190.02 60.77 184.72 62.72 179.98 66.58 175.23 70.46 172.12 75.53 170.67 81.82 169.94 84.74 169.57 87.12 169.57 89.01L169.57 106.79C169.57 114.51 171.95 121.05 176.7 126.4 181.45 131.72 187.62 134.4 195.21 134.4 204.12 134.4 211.05 130.95 216.01 124.1 220.98 117.23 223.47 108.18 223.47 96.92L223.47 96.92Z" id="Fill-5"/><path d="M370.05 96.06C370.05 114.17 365.13 128.48 355.29 138.99 346.47 148.35 335.53 153.02 322.45 153.02 308.36 153.02 298.22 147.99 292.05 137.9L292.05 193.78 268.39 193.78 268.39 79.12C268.39 67.75 268.09 56.09 267.51 44.12L288.32 44.12 289.64 61.01 290.09 61.01C297.96 48.29 309.94 41.93 326.02 41.93 338.57 41.93 349.07 46.89 357.47 56.82 365.83 66.77 370.05 79.85 370.05 96.06L370.05 96.06ZM345.94 96.92C345.94 86.56 343.59 78.01 338.91 71.29 333.81 64.29 326.95 60.77 318.34 60.77 312.5 60.77 307.2 62.72 302.44 66.58 297.7 70.46 294.59 75.53 293.14 81.82 292.42 84.74 292.03 87.12 292.03 89.01L292.03 106.79C292.03 114.51 294.41 121.05 299.14 126.4 303.89 131.71 310.06 134.4 317.67 134.4 326.59 134.4 333.53 130.95 338.48 124.1 343.45 117.23 345.94 108.18 345.94 96.92L345.94 96.92Z" id="Fill-6"/><path d="M506.99 109.2C506.99 121.76 502.6 131.98 493.86 139.87 484.25 148.48 470.83 152.8 453.63 152.8 437.74 152.8 425 149.73 415.39 143.6L420.86 123.88C431.24 130.01 442.63 133.09 455.04 133.09 463.96 133.09 470.9 131.07 475.85 127.06 480.82 123.03 483.32 117.67 483.32 110.97 483.32 104.97 481.25 99.93 477.17 95.84 473.07 91.76 466.3 87.95 456.81 84.46 430.95 74.82 418.01 60.7 418.01 42.16 418.01 30.04 422.58 20.12 431.69 12.36 440.81 4.62 452.91 0.75 467.96 0.75 481.4 0.75 492.59 3.09 501.48 7.76L495.54 27.05C487.18 22.52 477.73 20.25 467.17 20.25 458.82 20.25 452.27 22.31 447.59 26.39 443.66 30.04 441.65 34.49 441.65 39.77 441.65 45.6 443.92 50.44 448.46 54.22 452.39 57.73 459.56 61.54 469.92 65.62 482.64 70.75 491.97 76.72 497.96 83.57 503.99 90.43 506.99 98.99 506.99 109.2" id="Fill-7"/><path d="M585.41 61.88L559.33 61.88 559.33 113.58C559.33 126.73 563.92 133.29 573.13 133.29 577.36 133.29 580.87 132.93 583.64 132.19L584.3 150.16C579.64 151.9 573.5 152.77 565.91 152.77 556.56 152.77 549.26 149.91 543.98 144.22 538.72 138.51 536.09 128.96 536.09 115.51L536.09 61.83 520.57 61.83 520.57 44.08 536.09 44.08 536.09 24.58 559.33 17.57 559.33 44.08 585.41 44.08 585.41 61.88" id="Fill-8"/><path d="M702.84 96.49C702.84 112.86 698.16 126.3 688.81 136.81 679.03 147.61 666.03 153.02 649.81 153.02 634.17 153.02 621.73 147.84 612.45 137.47 603.17 127.11 598.54 114.03 598.54 98.27 598.54 81.76 603.34 68.25 612.88 57.74 622.45 47.23 635.34 41.96 651.56 41.96 667.19 41.96 679.73 47.16 689.24 57.52 698.32 67.58 702.84 80.56 702.84 96.49L702.84 96.49ZM678.31 97.03C678.31 87.28 676.2 78.91 671.97 71.91 667.01 63.45 659.9 59.24 650.71 59.24 641.25 59.24 633.96 63.45 629.02 71.91 624.77 78.91 622.67 87.42 622.67 97.48 622.67 107.24 624.77 115.63 629.02 122.6 634.13 131.07 641.27 135.3 650.52 135.3 659.56 135.3 666.65 130.97 671.79 122.4 676.12 115.23 678.31 106.81 678.31 97.03L678.31 97.03Z" id="Fill-9"/><path d="M779.77 64.93C777.43 64.5 774.92 64.29 772.31 64.29 763.99 64.29 757.55 67.41 753.03 73.71 749.09 79.26 747.12 86.27 747.12 94.74L747.12 150.61 723.46 150.61 723.46 77.66C723.46 65.4 723.23 54.2 722.78 44.14L743.38 44.14 744.25 64.51 744.9 64.51C747.41 57.51 751.34 51.86 756.73 47.64 762.01 43.82 767.7 41.93 773.83 41.93 776.02 41.93 777.99 42.09 779.75 42.36L779.77 64.93" id="Fill-10"/><path d="M885.58 92.33C885.58 96.57 885.3 100.14 884.71 103.06L813.75 103.06C814 113.58 817.46 121.64 824.04 127.18 830.02 132.13 837.76 134.62 847.25 134.62 857.76 134.62 867.35 132.95 875.97 129.58L879.68 146C869.6 150.39 857.69 152.59 843.98 152.59 827.46 152.59 814.5 147.72 805.07 138.03 795.67 128.32 790.94 115.26 790.94 98.92 790.94 82.87 795.32 69.5 804.11 58.84 813.29 47.45 825.71 41.76 841.34 41.76 856.68 41.76 868.3 47.45 876.18 58.84 882.44 67.86 885.58 79.05 885.58 92.33L885.58 92.33ZM863.02 86.19C863.19 79.17 861.63 73.13 858.43 68 854.33 61.41 848.03 58.13 839.58 58.13 831.84 58.13 825.54 61.34 820.75 67.77 816.81 72.89 814.47 79.05 813.75 86.17L863.02 86.19 863.02 86.19Z" id="Fill-11"/></g><g id="Available-on-the" transform="translate(468.000000, 91.000000)" fill="#FFFFFF"><path d="M61.95 77.08L49.56 77.08 42.78 55.76 19.2 55.76 12.73 77.08 0.67 77.08 24.04 4.49 38.46 4.49 61.95 77.08 61.95 77.08ZM40.74 46.82L34.6 27.86C33.96 25.92 32.77 21.4 30.94 14.19L30.72 14.19C29.96 17.31 28.89 21.84 27.27 27.86L21.24 46.82 40.74 46.82 40.74 46.82Z" id="Fill-12"/><path d="M120.39 24.74L100.57 77.08 89.26 77.08 70.09 24.74 82.58 24.74 91.53 52.42C93.04 57.05 94.32 61.46 95.29 65.66L95.61 65.66C96.48 61.9 97.76 57.48 99.37 52.42L108.21 24.74 120.39 24.74" id="Fill-13"/><path d="M162.58 77.08L161.72 71.05 161.39 71.05C157.84 75.9 152.67 78.27 146.1 78.27 136.74 78.27 130.06 71.7 130.06 62.86 130.06 49.95 141.25 43.27 160.64 43.27L160.64 42.3C160.64 35.41 156.98 31.96 149.76 31.96 144.59 31.96 140.07 33.26 136.09 35.84L133.73 28.2C138.58 25.18 144.6 23.67 151.72 23.67 165.39 23.67 172.29 30.88 172.29 45.32L172.29 64.59C172.29 69.88 172.51 73.97 173.05 77.09L162.58 77.08 162.58 77.08ZM160.96 51.01C148.03 51.01 141.57 54.14 141.57 61.56 141.57 67.06 144.91 69.74 149.54 69.74 155.47 69.74 160.96 65.23 160.96 59.09L160.96 51.01 160.96 51.01Z" id="Fill-14"/><path d="M198.19 16.12C194.32 16.12 191.3 13.1 191.3 9.12 191.3 5.14 194.42 2.23 198.41 2.23 202.4 2.23 205.63 5.14 205.52 9.12 205.52 13.33 202.51 16.12 198.19 16.12L198.19 16.12ZM192.6 24.74L204.23 24.74 204.23 77.08 192.6 77.08 192.6 24.74Z" id="Fill-15"/><path d="M224.89 0.73L236.52 0.73 236.52 77.08 224.89 77.08 224.89 0.73Z" id="Fill-16"/><path d="M285.95 77.08L285.07 71.05 284.76 71.05C281.21 75.9 276.04 78.27 269.47 78.27 260.1 78.27 253.42 71.7 253.42 62.86 253.42 49.95 264.62 43.27 284 43.27L284 42.3C284 35.41 280.34 31.96 273.13 31.96 267.96 31.96 263.43 33.26 259.46 35.84L257.08 28.18C261.93 25.17 267.96 23.66 275.07 23.66 288.74 23.66 295.66 30.87 295.66 45.31L295.66 64.58C295.66 69.86 295.88 73.96 296.39 77.08L285.95 77.08 285.95 77.08ZM284.33 51.01C271.4 51.01 264.94 54.14 264.94 61.56 264.94 67.06 268.28 69.74 272.91 69.74 278.83 69.74 284.33 65.23 284.33 59.09L284.33 51.01 284.33 51.01Z" id="Fill-17"/><path d="M342.76 78.27C335.34 78.27 329.86 75.14 326.29 69L326.07 69 325.41 77.08 315.51 77.08C315.82 72.88 315.93 68.13 315.93 62.97L315.93 0.73 327.58 0.73 327.58 32.4 327.79 32.4C331.24 26.59 336.84 23.68 344.48 23.68 357.09 23.68 365.92 34.45 365.92 50.17 365.92 66.41 356.11 78.27 342.76 78.27L342.76 78.27ZM340.4 32.81C333.71 32.81 327.58 38.63 327.58 46.71L327.58 55.86C327.58 63.07 333.09 69 340.19 69 348.9 69 354.09 61.9 354.09 50.59 354.08 40.04 348.69 32.81 340.4 32.81L340.4 32.81Z" id="Fill-18"/><path d="M383.13 0.73L394.75 0.73 394.75 77.08 383.13 77.08 383.13 0.73Z" id="Fill-19"/><path d="M458.05 53.71L423.14 53.71C423.37 63.62 429.92 69.21 439.6 69.21 444.79 69.21 449.53 68.34 453.72 66.74L455.53 74.81C450.58 76.97 444.76 78.04 437.98 78.04 421.61 78.04 411.92 67.7 411.92 51.67 411.92 35.62 421.84 23.56 436.69 23.56 450.02 23.56 458.45 33.47 458.45 48.44 458.48 50.48 458.38 52.31 458.05 53.71L458.05 53.71ZM447.39 45.42C447.39 37.34 443.29 31.64 435.85 31.64 429.17 31.64 423.91 37.45 423.14 45.42L447.39 45.42 447.39 45.42Z" id="Fill-20"/><path d="M528.54 78.27C513.24 78.27 503.33 66.85 503.33 51.34 503.33 35.19 513.45 23.67 529.41 23.67 544.47 23.67 554.61 34.54 554.61 50.49 554.61 66.85 544.16 78.27 528.54 78.27L528.54 78.27ZM528.98 32.17C520.58 32.17 515.2 40.03 515.2 51.01 515.2 61.79 520.69 69.64 528.87 69.64 537.05 69.64 542.54 61.24 542.54 50.79 542.54 40.14 537.16 32.17 528.98 32.17L528.98 32.17Z" id="Fill-21"/><path d="M617.13 77.08L605.53 77.08 605.53 47.03C605.53 37.77 601.96 33.13 594.96 33.13 588.07 33.13 583.32 39.06 583.32 45.95L583.32 77.08 571.71 77.08 571.71 39.7C571.71 35.08 571.58 30.12 571.27 24.73L581.5 24.73 582.04 32.81 582.38 32.81C585.47 27.22 591.84 23.66 598.96 23.66 609.92 23.66 617.13 32.06 617.13 45.73L617.13 77.08" id="Fill-22"/><path d="M693.22 33.47L680.43 33.47 680.43 58.88C680.43 65.35 682.68 68.58 687.2 68.58 689.24 68.58 690.98 68.36 692.37 68.03L692.69 76.87C690.43 77.73 687.4 78.17 683.66 78.17 674.48 78.17 669.02 73.1 669.02 59.86L669.02 33.47 661.4 33.47 661.4 24.74 669.02 24.74 669.02 15.16 680.43 11.71 680.43 24.73 693.22 24.73 693.22 33.47" id="Fill-23"/><path d="M754.81 77.08L743.17 77.08 743.17 47.25C743.17 37.88 739.61 33.14 732.62 33.14 726.59 33.14 721 37.24 721 45.53L721 77.08 709.36 77.08 709.36 0.73 721 0.73 721 32.17 721.22 32.17C724.87 26.46 730.17 23.66 736.95 23.66 748.03 23.66 754.81 32.27 754.81 45.95L754.81 77.08" id="Fill-24"/><path d="M814.24 53.71L779.34 53.71C779.56 63.62 786.11 69.21 795.8 69.21 801 69.21 805.73 68.34 809.9 66.74L811.72 74.81C806.78 76.97 800.95 78.04 794.16 78.04 777.79 78.04 768.11 67.7 768.11 51.67 768.11 35.62 778.02 23.56 792.86 23.56 806.21 23.56 814.63 33.47 814.63 48.44 814.67 50.48 814.56 52.31 814.24 53.71L814.24 53.71ZM803.57 45.42C803.57 37.34 799.49 31.64 792.05 31.64 785.37 31.64 780.1 37.45 779.34 45.42L803.57 45.42 803.57 45.42Z" id="Fill-25"/></g></g></g></g></svg>